<svg width="300" height="88" viewBox="0 0 300 88" fill="none" xmlns="http://www.w3.org/2000/svg">
<path d="M61.9303 44.8519C58.2663 45.1655 54.6023 45.4792 50.9383 45.8376C50.3128 39.2062 49.6872 32.5749 49.017 25.9883C48.7936 23.7032 48.2127 22.0453 47.2297 21.0596C46.2466 20.0739 44.9955 19.6258 43.521 19.805C42.0465 19.9394 40.6613 20.7011 39.3208 22.0005C37.9803 23.2999 37.1314 24.9578 36.7292 26.8844C37.4441 33.6054 38.2038 40.3264 38.9187 47.0474C35.2547 47.4506 31.5907 47.8539 27.9714 48.302C27.1671 41.7154 26.4075 35.084 25.6032 28.4975C25.3351 26.1675 24.6649 24.5545 23.6819 23.5688C22.6542 22.6278 21.4477 22.2246 20.0626 22.4038C18.588 22.583 17.2475 23.3447 15.9071 24.6441C14.6113 25.9435 13.7623 27.5565 13.3155 29.528C14.2091 36.2938 15.1028 43.0596 15.9517 49.8254C12.2878 50.3183 8.66845 50.8111 5.00447 51.3488C3.35121 39.5647 1.65326 27.7358 0 15.9517C3.39589 15.4588 6.79178 15.0107 10.1877 14.5627C10.4558 16.5789 10.7239 18.5952 10.992 20.6115C12.0643 18.2816 13.7176 16.3997 15.9071 14.9659C18.0965 13.5321 20.7775 12.636 23.95 12.2775C27.0331 11.9191 29.4459 12.3223 31.2332 13.4873C33.0206 14.6523 34.227 16.1309 34.8972 17.9231C36.059 15.5932 37.7569 13.7113 39.9911 12.2775C42.2252 10.8437 44.7721 9.99238 47.7212 9.67874C50.0894 9.45471 52.0554 9.67874 53.5746 10.3508C55.0938 11.0229 56.3003 12.0087 57.1939 13.3081C58.0876 14.6075 58.7578 15.9965 59.16 17.5199C59.5621 19.0433 59.8302 20.5667 59.9642 22.0453C60.6345 29.6625 61.2601 37.2796 61.9303 44.8519Z" fill="#FB3333"/>
<path d="M65.9965 33.7847C65.8178 31.4995 66.3093 29.3936 67.5157 27.467C68.7222 25.5851 70.4648 24.0169 72.7883 22.8519C75.1118 21.6421 77.7928 20.97 80.9206 20.746C82.4398 20.6564 83.9143 20.7012 85.3888 20.8356C86.8634 21.0148 88.1592 21.2837 89.2315 21.6869C89.1869 21.1492 89.1869 20.6564 89.1422 20.1187C89.0528 18.1472 88.3379 16.7134 87.0421 15.8173C85.7463 14.8763 83.8696 14.5179 81.3674 14.6523C79.3567 14.7867 77.4353 15.2796 75.648 16.0861C73.8607 16.8926 71.984 18.0128 70.0627 19.4466C68.7669 17.2063 67.471 14.9659 66.1306 12.7256C68.4541 10.9782 70.9563 9.63396 73.5926 8.69302C76.2289 7.75208 79.0439 7.1696 82.0376 6.99037C87.623 6.63192 92.0912 7.66247 95.3084 10.0372C98.5256 12.412 100.268 16.0413 100.492 20.8804C100.626 23.9272 100.76 27.0189 100.938 30.0657C100.983 31.1411 101.207 31.9028 101.564 32.3509C101.921 32.7989 102.547 33.023 103.351 33.023C103.485 36.0698 103.619 39.1166 103.753 42.1635C102.86 42.4323 102.011 42.6116 101.207 42.746C100.447 42.8356 99.732 42.9252 99.1511 42.97C97.0957 43.0596 95.4871 42.746 94.4147 41.9843C93.2977 41.2226 92.5828 40.1472 92.1806 38.7134C92.0466 38.1757 91.9572 37.6828 91.8231 37.1452C90.3486 39.2959 88.5613 40.9537 86.4165 42.2083C84.2718 43.4181 81.9483 44.0902 79.5354 44.2694C77.1672 44.4486 74.9777 44.0902 73.0117 43.2837C71.0457 42.4323 69.4371 41.2226 68.186 39.6095C66.8902 37.8621 66.1752 35.9802 65.9965 33.7847ZM88.1592 33.5606C88.6507 33.1126 89.0528 32.6645 89.3209 32.1268C89.6337 31.5892 89.7677 31.1411 89.7231 30.7378C89.6784 29.7073 89.589 28.6319 89.5443 27.6014C88.606 27.2877 87.5336 27.0637 86.3719 26.9741C85.2101 26.8397 84.1377 26.7949 83.1547 26.8845C81.144 27.0189 79.4907 27.5566 78.1949 28.5423C76.8991 29.5281 76.3182 30.693 76.4076 32.082C76.4523 32.8437 76.7651 33.5606 77.2566 34.1879C77.7481 34.86 78.4183 35.3529 79.2673 35.6665C80.1163 35.9802 81.0546 36.1146 82.1717 36.025C83.2887 35.9354 84.3611 35.7114 85.4782 35.2633C86.5953 34.7704 87.4889 34.2327 88.1592 33.5606Z" fill="#FB3333"/>
<path d="M107.06 35.3518C112.913 27.9587 118.901 20.5656 125.022 13.2622C119.035 13.3966 113.092 13.5758 107.104 13.8446C107.015 11.2907 106.881 8.7367 106.792 6.22753C116.801 5.82427 126.854 5.55543 136.863 5.46582C136.908 7.66134 136.908 9.85686 136.953 12.0972C130.786 19.311 124.709 26.6145 118.811 33.9628C125.112 33.7835 131.412 33.6491 137.667 33.5595C137.712 36.1135 137.712 38.6675 137.757 41.2214C127.614 41.311 117.471 41.5799 107.328 42.028C107.239 39.7876 107.149 37.5473 107.06 35.3518Z" fill="#FB3333"/>
<path d="M141.287 34.546C147.364 27.3321 153.62 20.1631 159.964 13.0837C153.977 13.0389 148.034 12.994 142.047 13.0389C142.047 10.4849 142.002 7.93091 142.002 5.37694C152.011 5.33214 162.065 5.37694 172.074 5.60097C172.029 7.79649 171.984 9.99201 171.939 12.1875C165.505 19.2222 159.25 26.3016 153.083 33.4258C159.384 33.4706 165.684 33.5154 171.939 33.6947C171.895 36.2486 171.805 38.8026 171.761 41.3566C161.618 41.1325 151.475 41.0429 141.332 41.1325C141.332 38.937 141.287 36.7415 141.287 34.546Z" fill="#FB3333"/>
<path d="M175.514 30.782C175.559 28.452 176.318 26.4357 177.703 24.6883C179.089 22.9408 181.01 21.5966 183.423 20.6557C185.836 19.7148 188.606 19.3115 191.689 19.4459C193.208 19.4907 194.683 19.7148 196.113 20.0284C197.542 20.342 198.794 20.7453 199.866 21.283C199.911 20.7453 199.911 20.2524 199.955 19.7148C200.045 17.7433 199.509 16.2647 198.347 15.1893C197.185 14.1139 195.308 13.5315 192.806 13.4418C190.795 13.3522 188.829 13.6211 186.953 14.2484C185.076 14.8757 183.11 15.7718 181.055 17.0264C179.982 14.6516 178.954 12.2769 177.882 9.90213C180.384 8.42351 182.976 7.34816 185.702 6.67606C188.427 6.00396 191.287 5.73512 194.281 5.86954C199.911 6.09358 204.2 7.617 207.149 10.3054C210.098 12.9938 211.439 16.8023 211.126 21.6414C210.947 24.6883 210.769 27.7799 210.59 30.8268C210.545 31.9021 210.635 32.6638 210.992 33.1567C211.305 33.6496 211.886 33.9184 212.735 34.008C212.556 37.0549 212.377 40.1017 212.154 43.1486C211.215 43.3278 210.366 43.4174 209.562 43.4622C208.758 43.4622 208.088 43.4622 207.507 43.4622C205.451 43.3278 203.887 42.8349 202.904 41.9836C201.877 41.0875 201.251 39.9225 201.028 38.4887C200.983 37.951 200.894 37.4133 200.849 36.8757C199.196 38.8471 197.185 40.3258 194.906 41.3115C192.627 42.2972 190.304 42.7453 187.846 42.6557C185.478 42.5661 183.333 41.9836 181.457 40.953C179.58 39.9225 178.105 38.5335 177.033 36.786C175.961 34.949 175.425 32.9775 175.514 30.782ZM197.542 32.8879C198.079 32.5294 198.526 32.0814 198.838 31.5885C199.196 31.0956 199.374 30.6475 199.374 30.2443C199.419 29.2137 199.464 28.1384 199.509 27.1078C198.615 26.7046 197.542 26.3909 196.425 26.1221C195.264 25.8532 194.191 25.7188 193.208 25.674C191.198 25.5844 189.5 25.9877 188.114 26.7942C186.729 27.6455 186.014 28.7657 185.97 30.1099C185.925 30.8716 186.148 31.5885 186.595 32.3054C187.042 33.0223 187.668 33.56 188.427 33.9632C189.231 34.3665 190.17 34.5905 191.287 34.6353C192.404 34.6801 193.521 34.5457 194.638 34.2321C195.845 33.9632 196.783 33.4704 197.542 32.8879Z" fill="#FB3333"/>
<path d="M274.799 48.9283C271.135 48.4802 267.471 48.0322 263.852 47.6289C264.611 41.0423 265.326 34.411 266.086 27.8244C266.354 25.5393 266.086 23.7918 265.371 22.6269C264.611 21.4619 263.494 20.7898 262.02 20.6106C260.545 20.4313 259.026 20.8794 257.462 21.91C255.898 22.9405 254.692 24.3295 253.887 26.1666C253.217 32.8875 252.547 39.6085 251.832 46.3743C248.168 46.0159 244.504 45.6574 240.84 45.299C241.421 38.6676 242.046 32.0362 242.627 25.4049C242.851 23.0749 242.538 21.3275 241.734 20.2073C240.929 19.0871 239.812 18.4599 238.427 18.3254C236.953 18.191 235.478 18.6391 233.914 19.6696C232.35 20.7002 231.189 22.0892 230.384 23.8814C229.848 30.692 229.312 37.4578 228.776 44.2684C225.112 43.9996 221.448 43.7307 217.784 43.4619C218.588 31.5882 219.392 19.6696 220.197 7.7959C223.592 8.01993 227.033 8.28877 230.429 8.55761C230.25 10.5739 230.116 12.635 229.937 14.6513C231.457 12.5902 233.467 11.0668 235.88 10.1706C238.338 9.22971 241.108 8.91606 244.325 9.1849C247.408 9.45374 249.687 10.3499 251.206 11.8733C252.726 13.3967 253.575 15.0994 253.887 16.9812C255.496 14.9649 257.551 13.4863 260.009 12.5454C262.466 11.6045 265.192 11.2908 268.096 11.6045C270.465 11.8733 272.341 12.5006 273.682 13.4863C275.022 14.4721 276.005 15.6818 276.631 17.1157C277.256 18.5495 277.614 20.0729 277.703 21.6411C277.793 23.2093 277.748 24.7776 277.569 26.2562C276.676 33.8285 275.737 41.356 274.799 48.9283Z" fill="#FB3333"/>
<path d="M287.221 9.94705C287.668 6.63137 288.07 3.31568 288.516 0C292.359 0.492872 296.157 1.03055 300 1.56823C299.508 4.88391 299.062 8.19959 298.57 11.5153C294.817 10.9776 291.019 10.4847 287.221 9.94705ZM281.993 49.8249C283.557 37.8615 285.121 25.943 286.684 13.9796C290.483 14.4725 294.236 15.0102 298.034 15.5479C296.336 27.4664 294.638 39.4297 292.94 51.3483C289.276 50.8106 285.657 50.3177 281.993 49.8249Z" fill="#FB3333"/>
<path d="M178.195 46.5537C175.648 64.8796 159.92 79.0384 140.929 79.0384C121.939 79.0384 106.211 64.8796 103.664 46.5537H94.6381C97.2744 69.8531 117.024 87.9997 140.885 87.9997C164.745 87.9997 184.54 69.8531 187.131 46.5537H178.195Z" fill="#FB3333"/>
</svg>
