<svg width="452" height="132" viewBox="0 0 452 132" fill="none" xmlns="http://www.w3.org/2000/svg">
<g clip-path="url(#clip0_9_167)">
<path d="M93.3083 67.277C87.7879 67.7475 82.2675 68.2179 76.7471 68.7556C75.8046 58.8086 74.8621 48.8615 73.8522 38.9817C73.5156 35.554 72.6404 33.0672 71.1594 31.5886C69.6783 30.11 67.7933 29.4379 65.5716 29.7067C63.35 29.9084 61.263 31.0509 59.2434 33C57.2237 34.9491 55.9446 37.4359 55.3387 40.3259C56.4158 50.4073 57.5603 60.4888 58.6375 70.5703C53.1171 71.1752 47.5967 71.7801 42.1436 72.4522C40.9318 62.5723 39.7873 52.6253 38.5755 42.7454C38.1716 39.2505 37.1618 36.831 35.6807 35.3523C34.1323 33.9409 32.3146 33.3361 30.2276 33.6049C28.006 33.8737 25.9863 35.0163 23.9666 36.9654C22.0143 38.9145 20.7352 41.334 20.062 44.2913C21.4084 54.4399 22.7548 64.5886 24.034 74.7373C18.5136 75.4766 13.0605 76.2159 7.54006 77.0224C5.04915 59.3462 2.49091 41.6029 0 23.9267C5.11647 23.1874 10.2329 22.5153 15.3494 21.8432C15.7534 24.8676 16.1573 27.8921 16.5612 30.9165C18.1769 27.4216 20.6679 24.5988 23.9666 22.4481C27.2654 20.2974 31.3047 18.9532 36.0846 18.4155C40.7298 17.8778 44.3652 18.4827 47.0581 20.2301C49.751 21.9776 51.5687 24.1955 52.5785 26.8839C54.3289 23.389 56.8871 20.5662 60.2532 18.4155C63.6193 16.2648 67.4567 14.9878 71.8999 14.5173C75.468 14.1813 78.4301 14.5173 80.7191 15.5255C83.008 16.5336 84.8257 18.0122 86.1722 19.9613C87.5186 21.9104 88.5284 23.9939 89.1343 26.279C89.7402 28.5642 90.1442 30.8493 90.3461 33.0672C91.356 44.4929 92.2985 55.9185 93.3083 67.277Z" fill="#FB3333"/>
<path d="M99.4348 50.6761C99.1655 47.2484 99.9061 44.0895 101.724 41.1995C103.541 38.3767 106.167 36.0244 109.668 34.2769C113.168 32.4622 117.208 31.4541 121.92 31.118C124.209 30.9836 126.431 31.0508 128.653 31.2525C130.874 31.5213 132.827 31.9246 134.442 32.5295C134.375 31.7229 134.375 30.9836 134.308 30.1771C134.173 27.2199 133.096 25.0692 131.143 23.725C129.191 22.3136 126.364 21.7759 122.594 21.9775C119.564 22.1791 116.669 22.9185 113.976 24.1282C111.283 25.338 108.456 27.0182 105.561 29.169C103.609 25.8085 101.656 22.448 99.6368 19.0875C103.138 16.4663 106.908 14.45 110.88 13.0386C114.852 11.6272 119.093 10.7535 123.603 10.4846C132.019 9.94697 138.751 11.4928 143.598 15.0549C148.445 18.617 151.071 24.061 151.407 31.3197C151.609 35.8899 151.811 40.5274 152.081 45.0977C152.148 46.7107 152.485 47.8533 153.023 48.5254C153.562 49.1975 154.504 49.5335 155.716 49.5335C155.918 54.1038 156.12 58.6741 156.322 63.2443C154.975 63.6476 153.696 63.9164 152.485 64.118C151.34 64.2525 150.263 64.3869 149.388 64.4541C146.291 64.5885 143.867 64.118 142.252 62.9755C140.569 61.8329 139.491 60.2199 138.886 58.0692C138.684 57.2626 138.549 56.5233 138.347 55.7168C136.125 58.9429 133.432 61.4297 130.201 63.3115C126.97 65.1262 123.469 66.1343 119.833 66.4032C116.265 66.672 112.967 66.1343 110.004 64.9246C107.042 63.6476 104.619 61.8329 102.734 59.4134C100.781 56.7922 99.7041 53.9694 99.4348 50.6761ZM132.827 50.34C133.567 49.6679 134.173 48.9958 134.577 48.1893C135.048 47.3828 135.25 46.7107 135.183 46.1058C135.115 44.56 134.981 42.947 134.914 41.4011C133.5 40.9307 131.884 40.5946 130.134 40.4602C128.383 40.2586 126.768 40.1914 125.286 40.3258C122.257 40.5274 119.766 41.3339 117.814 42.8125C115.861 44.2912 114.986 46.0386 115.121 48.1221C115.188 49.2647 115.659 50.34 116.4 51.281C117.14 52.2891 118.15 53.0284 119.429 53.4989C120.709 53.9694 122.122 54.171 123.805 54.0366C125.488 53.9022 127.104 53.5661 128.787 52.894C130.47 52.1547 131.817 51.3482 132.827 50.34Z" fill="#FB3333"/>
<path d="M161.303 53.0285C170.123 41.9388 179.144 30.8492 188.367 19.894C179.346 20.0957 170.392 20.3645 161.371 20.7678C161.236 16.9368 161.034 13.1058 160.9 9.34209C175.98 8.7372 191.127 8.33394 206.207 8.19952C206.275 11.4928 206.275 14.7861 206.342 18.1466C197.051 28.9673 187.896 39.9225 179.009 50.9449C188.502 50.6761 197.994 50.4745 207.419 50.3401C207.486 54.171 207.486 58.002 207.554 61.8329C192.272 61.9674 176.989 62.3706 161.707 63.0427C161.573 59.6822 161.438 56.3217 161.303 53.0285Z" fill="#FB3333"/>
<path d="M212.873 51.8188C222.028 40.998 231.453 30.2445 241.013 19.6253C231.992 19.5581 223.038 19.4909 214.017 19.5581C214.017 15.7271 213.95 11.8962 213.95 8.06523C229.03 7.99802 244.177 8.06523 259.257 8.40128C259.19 11.6946 259.123 14.9878 259.055 18.2811C249.361 28.833 239.936 39.4522 230.646 50.1385C240.138 50.2058 249.63 50.273 259.055 50.5418C258.988 54.3728 258.853 58.2037 258.786 62.0347C243.504 61.6986 228.222 61.5642 212.94 61.6986C212.94 58.4053 212.873 55.1121 212.873 51.8188Z" fill="#FB3333"/>
<path d="M264.441 46.1732C264.508 42.6783 265.653 39.6538 267.74 37.0327C269.827 34.4115 272.721 32.3952 276.357 30.9838C279.992 29.5724 284.166 28.9675 288.811 29.1691C291.1 29.2363 293.322 29.5724 295.476 30.0428C297.631 30.5133 299.516 31.1182 301.131 31.9247C301.199 31.1182 301.199 30.3789 301.266 29.5724C301.401 26.6152 300.593 24.3972 298.842 22.7842C297.092 21.1712 294.265 20.2974 290.494 20.163C287.465 20.0286 284.503 20.4318 281.675 21.3728C278.848 22.3137 275.886 23.6579 272.789 25.5398C271.173 21.9777 269.625 18.4156 268.009 14.8534C271.779 12.6355 275.684 11.0225 279.79 10.0143C283.897 9.00619 288.206 8.60293 292.716 8.80456C301.199 9.14061 307.662 11.4257 312.105 15.4583C316.548 19.4909 318.568 25.2037 318.097 32.4624C317.827 37.0327 317.558 41.6701 317.289 46.2404C317.221 47.8534 317.356 48.996 317.895 49.7353C318.366 50.4746 319.241 50.8779 320.52 51.0123C320.251 55.5826 319.982 60.1528 319.645 64.7231C318.231 64.9919 316.952 65.1264 315.74 65.1936C314.528 65.1936 313.519 65.1936 312.643 65.1936C309.547 64.9919 307.19 64.2526 305.709 62.9756C304.161 61.6314 303.218 59.884 302.882 57.7333C302.814 56.9268 302.68 56.1202 302.612 55.3137C300.122 58.271 297.092 60.4889 293.659 61.9675C290.225 63.4461 286.724 64.1182 283.022 63.9838C279.454 63.8494 276.222 62.9756 273.395 61.4298C270.567 59.884 268.346 57.8005 266.73 55.1793C265.114 52.4237 264.306 49.4665 264.441 46.1732ZM297.631 49.3321C298.438 48.7944 299.112 48.1223 299.583 47.383C300.122 46.6437 300.391 45.9716 300.391 45.3667C300.458 43.8209 300.525 42.2078 300.593 40.662C299.246 40.0571 297.631 39.5866 295.948 39.1834C294.197 38.7801 292.581 38.5785 291.1 38.5113C288.071 38.3769 285.513 38.9817 283.426 40.1915C281.339 41.4685 280.262 43.1488 280.194 45.165C280.127 46.3076 280.464 47.383 281.137 48.4583C281.81 49.5337 282.752 50.3402 283.897 50.9451C285.109 51.55 286.523 51.886 288.206 51.9532C289.889 52.0204 291.572 51.8188 293.255 51.3483C295.072 50.9451 296.486 50.2058 297.631 49.3321Z" fill="#FB3333"/>
<path d="M414.03 73.393C408.51 72.7209 402.99 72.0488 397.536 71.4439C398.681 61.5641 399.758 51.6171 400.903 41.7372C401.306 38.3095 400.903 35.6883 399.825 33.9409C398.681 32.1934 396.998 31.1853 394.776 30.9165C392.555 30.6476 390.266 31.3197 387.909 32.8655C385.553 34.4114 383.735 36.4949 382.524 39.2505C381.514 49.3319 380.504 59.4134 379.427 69.5621C373.906 69.0244 368.386 68.4867 362.866 67.949C363.741 58.002 364.683 48.0549 365.558 38.1079C365.895 34.613 365.424 31.9918 364.212 30.3116C363 28.6313 361.317 27.6904 359.23 27.4888C357.009 27.2871 354.787 27.9592 352.431 29.505C350.074 31.0509 348.324 33.1344 347.112 35.8228C346.304 46.0387 345.497 56.1873 344.689 66.4032C339.168 66 333.648 65.5967 328.127 65.1934C329.339 47.3828 330.551 29.505 331.763 11.6945C336.879 12.0305 342.063 12.4338 347.18 12.837C346.91 15.8615 346.708 18.9531 346.439 21.9776C348.728 18.8859 351.757 16.6008 355.393 15.2566C359.096 13.8452 363.27 13.3747 368.117 13.778C372.762 14.1812 376.195 15.5254 378.484 17.8105C380.773 20.0957 382.052 22.6497 382.524 25.4725C384.947 22.448 388.044 20.2301 391.747 18.8187C395.449 17.4073 399.556 16.9368 403.932 17.4073C407.5 17.8105 410.328 18.7515 412.347 20.2301C414.367 21.7087 415.848 23.5234 416.79 25.6741C417.733 27.8248 418.272 30.1099 418.406 32.4623C418.541 34.8146 418.474 37.167 418.204 39.3849C416.858 50.7433 415.444 62.0346 414.03 73.393Z" fill="#FB3333"/>
<path d="M432.746 14.9206C433.419 9.94705 434.025 4.97352 434.698 0C440.488 0.739308 446.21 1.54582 452 2.35234C451.259 7.32587 450.586 12.2994 449.846 17.2729C444.191 16.4664 438.468 15.7271 432.746 14.9206ZM424.869 74.7373C427.225 56.7923 429.582 38.9145 431.938 20.9694C437.66 21.7088 443.315 22.5153 449.038 23.3218C446.48 41.1996 443.921 59.1446 441.363 77.0224C435.843 76.2159 430.39 75.4766 424.869 74.7373Z" fill="#FB3333"/>
<path d="M268.48 69.8309C264.643 97.3197 240.946 118.558 212.334 118.558C183.722 118.558 160.025 97.3197 156.187 69.8309H142.588C146.56 104.78 176.316 132 212.266 132C248.216 132 278.04 104.78 281.945 69.8309H268.48Z" fill="#FB3333"/>
</g>
<defs>
<clipPath id="clip0_9_167">
<rect width="452" height="132" fill="white"/>
</clipPath>
</defs>
</svg>
