<svg width="36" height="32" viewBox="0 0 36 32" fill="none" xmlns="http://www.w3.org/2000/svg">
<path d="M2.33232 11.5477C4.61058 8.69108 6.94101 5.83443 9.32362 3.01241C6.99318 3.06435 4.68014 3.1336 2.3497 3.23748C2.31492 2.25063 2.26275 1.26379 2.22797 0.29426C6.12362 0.138443 10.0367 0.034565 13.9323 -6.10352e-05C13.9497 0.848277 13.9497 1.69662 13.9671 2.56227C11.5671 5.34967 9.20188 8.17169 6.90623 11.011C9.3584 10.9418 11.8106 10.8898 14.2454 10.8552C14.2628 11.8421 14.2627 12.8289 14.2801 13.8157C10.3323 13.8504 6.38449 13.9542 2.43666 14.1274C2.40188 13.2617 2.3671 12.3961 2.33232 11.5477Z" fill="#FB3333"/>
<path d="M21.5478 11.2769C23.913 8.48948 26.3478 5.71939 28.8174 2.98394C26.4869 2.96662 24.1739 2.94931 21.8434 2.96662C21.8434 1.97978 21.826 0.992937 21.826 0.00609409C25.7217 -0.0112189 29.6347 0.00609409 33.5304 0.0926592C33.513 0.940998 33.4956 1.78934 33.4782 2.63767C30.9739 5.35582 28.5391 8.09128 26.1391 10.8441C28.5913 10.8614 31.0434 10.8787 33.4782 10.9479C33.4608 11.9348 33.426 12.9216 33.4087 13.9085C29.4608 13.8219 25.513 13.7873 21.5652 13.8219C21.5652 12.9736 21.5478 12.1252 21.5478 11.2769Z" fill="#FB3333"/>
<path d="M32.5217 15.9855C31.5304 23.0665 25.4087 28.5374 18.0174 28.5374C10.6261 28.5374 4.50435 23.0665 3.51304 15.9855H0C1.02609 24.9883 8.71304 32.0001 18 32.0001C27.287 32.0001 34.9913 24.9883 36 15.9855H32.5217Z" fill="#FB3333"/>
</svg>
