<svg width="65" height="57" viewBox="0 0 65 57" fill="none" xmlns="http://www.w3.org/2000/svg">
<path d="M4.21136 20.5694C8.32489 15.481 12.5326 10.3926 16.8345 5.3659C12.6268 5.45841 8.45049 5.58177 4.24276 5.7668C4.17995 4.00899 4.08575 2.25117 4.02295 0.524199C11.0568 0.24665 18.122 0.0616166 25.1558 -6.10352e-05C25.1872 1.51104 25.1872 3.02214 25.2186 4.56409C20.8853 9.52914 16.6147 14.5559 12.4698 19.6134C16.8973 19.4901 21.3249 19.3976 25.721 19.3359C25.7524 21.0937 25.7524 22.8515 25.7838 24.6093C18.6558 24.671 11.5278 24.856 4.39976 25.1644C4.33696 23.6225 4.27416 22.0805 4.21136 20.5694Z" fill="#FB3333"/>
<path d="M38.906 20.087C43.1765 15.122 47.5727 10.1877 52.0316 5.31521C47.8239 5.28437 43.6475 5.25353 39.4398 5.28437C39.4398 3.52656 39.4084 1.76874 39.4084 0.0109295C46.4422 -0.0199093 53.5075 0.0109295 60.5413 0.165124C60.5099 1.67623 60.4785 3.18733 60.4471 4.69843C55.9253 9.54013 51.5292 14.4127 47.1959 19.316C51.6234 19.3469 56.0509 19.3777 60.4471 19.5011C60.4157 21.2589 60.3529 23.0167 60.3215 24.7745C53.1934 24.6203 46.0654 24.5586 38.9374 24.6203C38.9374 23.1092 38.906 21.5981 38.906 20.087Z" fill="#FB3333"/>
<path d="M58.7198 28.4742C56.93 41.0872 45.8768 50.8323 32.5314 50.8323C19.186 50.8323 8.13285 41.0872 6.34299 28.4742H0C1.85266 44.5103 15.7319 57.0001 32.5 57.0001C49.2681 57.0001 63.1787 44.5103 65 28.4742H58.7198Z" fill="#FB3333"/>
</svg>
