<svg width="132" height="140" viewBox="0 0 132 140" fill="none" xmlns="http://www.w3.org/2000/svg">
<g filter="url(#filter0_d_27_1351)">
<path d="M66 89.9612C73.7665 89.9612 80.0625 83.6984 80.0625 75.9728C80.0625 68.2473 73.7665 61.9845 66 61.9845C58.2335 61.9845 51.9375 68.2473 51.9375 75.9728C51.9375 83.6984 58.2335 89.9612 66 89.9612Z" fill="#FB3333"/>
<path d="M35.5 94.5307C41.8513 94.5307 47 89.4091 47 83.0913C47 76.7736 41.8513 71.652 35.5 71.652C29.1487 71.652 24 76.7736 24 83.0913C24 89.4091 29.1487 94.5307 35.5 94.5307Z" fill="#FB3333"/>
<path d="M96.5 94.5307C90.1487 94.5307 85 89.4091 85 83.0913C85 76.7736 90.1487 71.652 96.5 71.652C102.851 71.652 108 76.7736 108 83.0913C108 89.4091 102.851 94.5307 96.5 94.5307Z" fill="#FB3333"/>
<path d="M51.5469 118H62.0938H69.125H79.6719C85.4877 118 90.2188 113.294 90.2188 107.509C90.2188 97.5943 82.1815 89.557 72.267 89.557H65.6094H58.9517C49.0373 89.557 41 97.5943 41 107.509C41 113.294 45.7311 118 51.5469 118Z" fill="#FB3333"/>
<path d="M92 32.3603C92 17.8244 80.1129 6 65.5 6C50.8871 6 39 17.8244 39 32.3603C39 46.8961 50.8871 58.7205 65.5 58.7205C80.1129 58.7205 92 46.8961 92 32.3603ZM65.3765 39.5537C63.8161 41.1059 61.295 41.1059 59.7346 39.5537L54.5959 34.442C53.4418 33.2941 53.4418 31.4264 54.5959 30.2785C55.7413 29.1391 57.592 29.1391 58.7375 30.2785L62.5556 34.0764L72.2625 24.4206C73.408 23.2812 75.2587 23.2812 76.4041 24.4206C77.5582 25.5686 77.5582 27.4363 76.4041 28.5842L65.3765 39.5537Z" fill="#FB3333"/>
<path d="M14 107.699Lnan nanL14 107.699C14 99.0124 21.0928 91.9774 29.8257 92.0024L42.5 92.0388Lnan nanL42.5 92.0388C34.9888 98.4035 31.9858 107.713 37.6715 115.735C37.9094 116.071 38.1267 116.37 38.3169 116.626C38.4008 116.739 38.3196 116.899 38.1784 116.899H23.2488C18.1488 116.899 14 112.772 14 107.699Z" fill="#FB3333"/>
<path d="M118 107.699Lnan nanL118 107.699C118 99.0124 110.907 91.9774 102.174 92.0024L89.5 92.0388Lnan nanL89.5 92.0388C97.0112 98.4035 100.014 107.713 94.3285 115.735C94.0906 116.071 93.8733 116.37 93.6831 116.626C93.5992 116.739 93.6804 116.899 93.8216 116.899H108.751C113.851 116.899 118 112.772 118 107.699Z" fill="#FB3333"/>
</g>
<defs>
<filter id="filter0_d_27_1351" x="0" y="0" width="132" height="140" filterUnits="userSpaceOnUse" color-interpolation-filters="sRGB">
<feFlood flood-opacity="0" result="BackgroundImageFix"/>
<feColorMatrix in="SourceAlpha" type="matrix" values="0 0 0 0 0 0 0 0 0 0 0 0 0 0 0 0 0 0 127 0" result="hardAlpha"/>
<feOffset dy="8"/>
<feGaussianBlur stdDeviation="7"/>
<feComposite in2="hardAlpha" operator="out"/>
<feColorMatrix type="matrix" values="0 0 0 0 1 0 0 0 0 0.239216 0 0 0 0 0.239216 0 0 0 0.25 0"/>
<feBlend mode="normal" in2="BackgroundImageFix" result="effect1_dropShadow_27_1351"/>
<feBlend mode="normal" in="SourceGraphic" in2="effect1_dropShadow_27_1351" result="shape"/>
</filter>
</defs>
</svg>
