<svg width="148" height="128" viewBox="0 0 148 128" fill="none" xmlns="http://www.w3.org/2000/svg">
<g filter="url(#filter0_d_27_1330)">
<path d="M92.0574 83.7078C91.7677 82.8169 90.9973 82.1677 90.0704 82.0329L80.4908 80.641L76.2069 71.9604C75.792 71.1204 74.9368 70.5886 74 70.5886C73.0632 70.5886 72.208 71.1204 71.7931 71.9604L67.5092 80.641L57.9296 82.0329C57.0026 82.1677 56.2325 82.8169 55.9428 83.7078C55.6536 84.5986 55.8948 85.5767 56.5655 86.2306L63.4974 92.9874L61.861 102.528C61.7026 103.452 62.082 104.385 62.84 104.935C63.598 105.486 64.6027 105.559 65.4317 105.123L74 100.618L82.5685 105.123C82.9285 105.312 83.3218 105.405 83.7134 105.405C84.2237 105.405 84.7315 105.247 85.1602 104.935C85.918 104.385 86.2976 103.452 86.1392 102.528L84.5028 92.9874L91.4347 86.2306C92.1055 85.5767 92.3469 84.5989 92.0574 83.7078Z" fill="#FB3333"/>
<path d="M52.2589 83.7082C51.9688 82.8172 51.1986 82.1679 50.2717 82.0332L40.6921 80.6412L36.4082 71.9607C35.9933 71.1207 35.1381 70.5889 34.2013 70.5889C33.2645 70.5889 32.4092 71.1207 31.9944 71.9607L27.7105 80.6412L18.1309 82.0332C17.2039 82.1679 16.4338 82.8172 16.1441 83.708C15.8549 84.5989 16.096 85.5769 16.7668 86.2308L23.6987 92.9879L22.0625 102.529C21.9041 103.452 22.2835 104.385 23.0415 104.936C23.799 105.486 24.804 105.559 25.6332 105.123L34.2015 100.618L42.77 105.123C43.13 105.312 43.5233 105.406 43.915 105.406C44.4252 105.406 44.9331 105.247 45.3617 104.936C46.1195 104.385 46.4992 103.452 46.3407 102.529L44.7043 92.9879L51.6362 86.2311C52.307 85.5772 52.5484 84.5993 52.2589 83.7082Z" fill="#FB3333"/>
<path d="M131.857 83.7078C131.566 82.8172 130.796 82.1679 129.869 82.0332L120.29 80.6412L116.006 71.9607C115.591 71.1207 114.736 70.5889 113.799 70.5889C112.862 70.5889 112.007 71.1207 111.592 71.9607L107.308 80.6412L97.7285 82.0332C96.8016 82.1679 96.0314 82.8171 95.7417 83.708C95.4525 84.5989 95.6937 85.5769 96.3645 86.2308L103.296 92.9876L101.66 102.529C101.502 103.452 101.881 104.385 102.639 104.936C103.068 105.247 103.575 105.406 104.086 105.406C104.477 105.406 104.871 105.312 105.231 105.123L113.799 100.618L122.367 105.123C123.196 105.559 124.201 105.486 124.959 104.936C125.717 104.385 126.097 103.452 125.938 102.529L124.302 92.9876L131.234 86.2306C131.905 85.5767 132.146 84.5989 131.857 83.7078Z" fill="#FB3333"/>
<path d="M117.099 14.5945H30.9012C21.582 14.5945 14 22.1763 14 31.4957V42.9002C14 51.6014 20.6084 58.7878 29.0705 59.7028L32.7249 64.5714C33.9296 66.1764 35.7711 67.1149 37.7773 67.146C37.8118 67.1465 37.8465 67.1467 37.8807 67.1467C39.8478 67.1467 41.675 66.2699 42.9073 64.7306L46.8545 59.8012H117.099C126.418 59.8012 134 52.2194 134 42.8999V31.4955C134 22.1763 126.418 14.5945 117.099 14.5945ZM66.4606 47.6383H34.46C32.5184 47.6383 30.9444 46.0642 30.9444 44.1227C30.9444 42.1811 32.5184 40.6071 34.46 40.6071H66.4606C68.4022 40.6071 69.9762 42.1811 69.9762 44.1227C69.9762 46.0642 68.4022 47.6383 66.4606 47.6383ZM113.54 33.5027H34.46C32.5184 33.5027 30.9444 31.9286 30.9444 29.9871C30.9444 28.0455 32.5184 26.4714 34.46 26.4714H113.54C115.482 26.4714 117.056 28.0455 117.056 29.9871C117.056 31.9286 115.482 33.5027 113.54 33.5027Z" fill="#FB3333"/>
</g>
<defs>
<filter id="filter0_d_27_1330" x="0" y="-6" width="148" height="148" filterUnits="userSpaceOnUse" color-interpolation-filters="sRGB">
<feFlood flood-opacity="0" result="BackgroundImageFix"/>
<feColorMatrix in="SourceAlpha" type="matrix" values="0 0 0 0 0 0 0 0 0 0 0 0 0 0 0 0 0 0 127 0" result="hardAlpha"/>
<feOffset dy="8"/>
<feGaussianBlur stdDeviation="7"/>
<feComposite in2="hardAlpha" operator="out"/>
<feColorMatrix type="matrix" values="0 0 0 0 1 0 0 0 0 0.239216 0 0 0 0 0.239216 0 0 0 0.25 0"/>
<feBlend mode="normal" in2="BackgroundImageFix" result="effect1_dropShadow_27_1330"/>
<feBlend mode="normal" in="SourceGraphic" in2="effect1_dropShadow_27_1330" result="shape"/>
</filter>
</defs>
</svg>
