<svg width="148" height="130" viewBox="0 0 148 130" fill="none" xmlns="http://www.w3.org/2000/svg">
<g filter="url(#filter0_d_27_1367)">
<path d="M22.1357 85.6142V104.891C22.1357 106.063 23.0972 107.041 24.3053 107.041H39.344C40.5274 107.041 41.5136 106.088 41.5136 104.891V70.9797L30.592 81.8029C28.2745 84.075 25.3161 85.3943 22.1357 85.6142Z" fill="#FB3333"/>
<path d="M49.0083 70.7356V104.891C49.0083 106.064 49.9698 107.041 51.1778 107.041H66.2166C67.4 107.041 68.3861 106.088 68.3861 104.891V84.7837C64.9593 84.7104 61.7543 83.3667 59.3382 80.9724L49.0083 70.7356Z" fill="#FB3333"/>
<path d="M75.8809 82.658V104.891C75.8809 106.063 76.8424 107.041 78.0504 107.041H93.0892C94.2725 107.041 95.2587 106.088 95.2587 104.891V63.8701L78.0257 80.9478C77.3601 81.6074 76.6451 82.1693 75.8809 82.658Z" fill="#FB3333"/>
<path d="M120.677 38.6569L102.753 56.4186V104.891C102.753 106.063 103.715 107.041 104.923 107.041H119.962C121.145 107.041 122.131 106.088 122.131 104.891V40.0006C121.638 39.5853 121.268 39.2188 120.997 38.9745L120.677 38.6569Z" fill="#FB3333"/>
<path d="M132.979 7.18905C132.264 6.43168 131.179 6.04077 129.799 6.04077C129.675 6.04077 129.527 6.04077 129.404 6.04077C122.402 6.35838 115.425 6.70042 108.424 7.01803C107.487 7.0669 106.205 7.11576 105.194 8.11745C104.874 8.43506 104.627 8.80154 104.43 9.2413C103.394 11.4646 104.849 12.906 105.539 13.5901L107.29 15.3492C108.498 16.5708 109.73 17.7923 110.963 18.9895L68.6573 60.9384L49.6493 42.1017C48.5152 40.9779 46.9867 40.3427 45.3595 40.3427C43.7324 40.3427 42.2285 40.9779 41.0944 42.1017L15.7751 67.1685C13.4083 69.5139 13.4083 73.3008 15.7751 75.6462L16.9091 76.7701C18.0432 77.8939 19.5717 78.5292 21.1989 78.5292C22.826 78.5292 24.3299 77.8939 25.464 76.7701L45.3595 57.0538L64.3675 75.8906C65.5016 77.0144 67.0302 77.6496 68.6573 77.6496C70.2844 77.6496 71.7883 77.0144 72.947 75.8906L120.677 28.5911L126.076 33.9172C126.717 34.5524 127.604 35.4319 128.96 35.4319C129.527 35.4319 130.094 35.2853 130.686 34.9677C131.081 34.7478 131.426 34.5035 131.722 34.2103C132.782 33.1598 132.979 31.816 133.028 30.7655C133.225 26.2701 133.447 21.7747 133.669 17.2548L133.99 10.4873C134.064 9.07028 133.743 7.97086 132.979 7.18905Z" fill="#FB3333"/>
</g>
<defs>
<filter id="filter0_d_27_1367" x="0" y="0.0407715" width="148" height="129" filterUnits="userSpaceOnUse" color-interpolation-filters="sRGB">
<feFlood flood-opacity="0" result="BackgroundImageFix"/>
<feColorMatrix in="SourceAlpha" type="matrix" values="0 0 0 0 0 0 0 0 0 0 0 0 0 0 0 0 0 0 127 0" result="hardAlpha"/>
<feOffset dy="8"/>
<feGaussianBlur stdDeviation="7"/>
<feComposite in2="hardAlpha" operator="out"/>
<feColorMatrix type="matrix" values="0 0 0 0 1 0 0 0 0 0.239216 0 0 0 0 0.239216 0 0 0 0.25 0"/>
<feBlend mode="normal" in2="BackgroundImageFix" result="effect1_dropShadow_27_1367"/>
<feBlend mode="normal" in="SourceGraphic" in2="effect1_dropShadow_27_1367" result="shape"/>
</filter>
</defs>
</svg>
